<?xml version="1.0" encoding="UTF-8" standalone="no"?>
<!-- Created with Inkscape (http://www.inkscape.org/) -->

<svg
   xmlns:dc="http://purl.org/dc/elements/1.1/"
   xmlns:cc="http://creativecommons.org/ns#"
   xmlns:rdf="http://www.w3.org/1999/02/22-rdf-syntax-ns#"
   xmlns:svg="http://www.w3.org/2000/svg"
   xmlns="http://www.w3.org/2000/svg"
   xmlns:sodipodi="http://sodipodi.sourceforge.net/DTD/sodipodi-0.dtd"
   xmlns:inkscape="http://www.inkscape.org/namespaces/inkscape"
   width="64"
   height="64"
   id="svg3344"
   version="1.1"
   inkscape:version="0.91 r13725"
   viewBox="0 0 64 64"
   sodipodi:docname="full grain.svg">
  <defs
     id="defs3346" />
  <sodipodi:namedview
     id="base"
     pagecolor="#ffffff"
     bordercolor="#666666"
     borderopacity="1.0"
     inkscape:pageopacity="0.0"
     inkscape:pageshadow="2"
     inkscape:zoom="12.18"
     inkscape:cx="20.747243"
     inkscape:cy="32.126185"
     inkscape:current-layer="layer1"
     showgrid="true"
     inkscape:document-units="px"
     inkscape:grid-bbox="true"
     inkscape:snap-nodes="true"
     inkscape:window-width="1920"
     inkscape:window-height="1053"
     inkscape:window-x="-9"
     inkscape:window-y="-9"
     inkscape:window-maximized="1" />
  <metadata
     id="metadata3349">
    <rdf:RDF>
      <cc:Work
         rdf:about="">
        <dc:format>image/svg+xml</dc:format>
        <dc:type
           rdf:resource="http://purl.org/dc/dcmitype/StillImage" />
        <dc:title></dc:title>
      </cc:Work>
    </rdf:RDF>
  </metadata>
  <g
     id="layer1"
     inkscape:label="Layer 1"
     inkscape:groupmode="layer">
    <path
       style="fill:#ffcc00;fill-rule:evenodd;stroke:#ffcc00;stroke-width:0.12035146px;stroke-linecap:butt;stroke-linejoin:miter;stroke-opacity:1"
       d="m 34.821492,12.030764 c 2.800831,1.060245 4.338614,-4.6719159 4.160164,-5.4842274 -0.167735,-0.7635538 -0.499514,-0.8278531 0.735573,-3.7489218 1.281209,-3.03015491 1.192808,-3.07324271 -0.48935,-0.1070693 -1.562959,2.7559976 -1.796027,2.5477489 -2.670854,3.0745404 -0.850285,0.51201 -4.516541,5.2274721 -1.735536,6.2656801 z"
       id="path3368"
       inkscape:connector-curvature="0"
       sodipodi:nodetypes="cssssc" />
    <path
       style="fill:none;fill-rule:evenodd;stroke:#ffcc00;stroke-width:1px;stroke-linecap:round;stroke-linejoin:miter;stroke-opacity:1"
       d="M 40.229885,59.402299 C 22.053004,51.082899 24.191324,34.177841 34.893268,11.29064"
       id="path4181"
       inkscape:connector-curvature="0"
       sodipodi:nodetypes="cc" />
    <path
       style="fill:#ffcc00;fill-rule:evenodd;stroke:#ffcc00;stroke-width:0.12035146px;stroke-linecap:butt;stroke-linejoin:miter;stroke-opacity:1"
       d="m 33.530824,16.78492 c 1.833428,2.367976 6.140849,-1.714741 6.413357,-2.500511 0.256155,-0.738602 0.0069,-0.966854 2.586811,-2.811386 2.676224,-1.9134167 2.623387,-1.99636 -0.361194,-0.347082 -2.773097,1.532417 -2.862922,1.233051 -3.884081,1.224819 -0.992508,-0.008 -6.582945,2.095335 -4.754897,4.43416 z"
       id="path3368-4"
       inkscape:connector-curvature="0"
       sodipodi:nodetypes="cssssc" />
    <path
       style="fill:#ffcc00;fill-rule:evenodd;stroke:#ffcc00;stroke-width:0.12035146px;stroke-linecap:butt;stroke-linejoin:miter;stroke-opacity:1"
       d="m 31.40853,22.54908 c 1.833428,2.367976 6.140849,-1.714741 6.413357,-2.500511 0.256155,-0.738602 0.0069,-0.966854 2.586811,-2.811386 2.676224,-1.913416 2.623387,-1.99636 -0.361194,-0.347082 -2.773097,1.532417 -2.862922,1.233051 -3.884081,1.224819 -0.992508,-0.008 -6.582945,2.095335 -4.754897,4.43416 z"
       id="path3368-4-3"
       inkscape:connector-curvature="0"
       sodipodi:nodetypes="cssssc" />
    <path
       style="fill:#ffcc00;fill-rule:evenodd;stroke:#ffcc00;stroke-width:0.12035146px;stroke-linecap:butt;stroke-linejoin:miter;stroke-opacity:1"
       d="m 29.273884,28.460409 c 1.833428,2.367976 6.140849,-1.714741 6.413357,-2.500511 0.256155,-0.738602 0.0069,-0.966854 2.586811,-2.811386 2.676223,-1.913416 2.623386,-1.99636 -0.361194,-0.347082 -2.773097,1.532417 -2.862922,1.233051 -3.884081,1.224819 -0.992508,-0.008 -6.582945,2.095335 -4.754897,4.43416 z"
       id="path3368-4-1"
       inkscape:connector-curvature="0"
       sodipodi:nodetypes="cssssc" />
    <path
       style="fill:#ffcc00;fill-rule:evenodd;stroke:#ffcc00;stroke-width:0.12035146px;stroke-linecap:butt;stroke-linejoin:miter;stroke-opacity:1"
       d="m 28.103911,34.022316 c 1.7682,2.417072 6.185308,-1.546716 6.479133,-2.324766 0.276193,-0.731346 0.03325,-0.966307 2.662483,-2.73983 2.727386,-1.839757 2.676829,-1.92411 -0.351599,-0.356799 -2.813837,1.456259 -2.895469,1.154555 -3.916024,1.118492 -0.991921,-0.03505 -6.637614,1.915118 -4.873997,4.302903 z"
       id="path3368-4-7"
       inkscape:connector-curvature="0"
       sodipodi:nodetypes="cssssc"
       inkscape:transform-center-x="-1.6424105"
       inkscape:transform-center-y="-5.1865981" />
    <path
       style="fill:#ffcc00;fill-rule:evenodd;stroke:#ffcc00;stroke-width:0.12035146px;stroke-linecap:butt;stroke-linejoin:miter;stroke-opacity:1"
       d="m 27.521342,39.731527 c 1.945873,2.276477 6.050673,-2.009906 6.284836,-2.807942 0.220112,-0.750133 -0.0399,-0.966055 2.447729,-2.933276 2.580493,-2.040685 2.523704,-2.120974 -0.377567,-0.329196 -2.69569,1.66482 -2.799897,1.370152 -3.820257,1.411346 -0.991733,0.04004 -6.473833,2.411448 -4.534745,4.659068 z"
       id="path3368-4-6"
       inkscape:connector-curvature="0"
       sodipodi:nodetypes="cssssc" />
    <path
       style="fill:#ffcc00;fill-rule:evenodd;stroke:#ffcc00;stroke-width:0.12035146px;stroke-linecap:butt;stroke-linejoin:miter;stroke-opacity:1"
       d="m 28.191804,45.717292 c 2.254894,1.970843 5.696022,-2.864557 5.812206,-3.688083 0.109214,-0.774093 -0.179311,-0.950107 1.997368,-3.256686 2.257933,-2.392713 2.190121,-2.463937 -0.421242,-0.271078 -2.426322,2.03748 -2.572083,1.761 -3.575736,1.949454 -0.975492,0.183169 -6.056605,3.323122 -3.812601,5.266394 z"
       id="path3368-4-37"
       inkscape:connector-curvature="0"
       sodipodi:nodetypes="cssssc"
       inkscape:transform-center-x="1.531024"
       inkscape:transform-center-y="-3.2378734" />
    <path
       style="fill:#ffcc00;fill-rule:evenodd;stroke:#ffcc00;stroke-width:0.12035146px;stroke-linecap:butt;stroke-linejoin:miter;stroke-opacity:1"
       d="m 29.790492,50.472331 c 2.260842,1.964017 5.687336,-2.881763 5.80103,-3.705637 0.106874,-0.77442 -0.182185,-0.94956 1.987514,-3.26271 2.250688,-2.399527 2.182661,-2.470546 -0.422059,-0.269803 -2.420151,2.044807 -2.566749,1.768768 -3.569827,1.960256 -0.974933,0.186121 -6.046531,3.341416 -3.796662,5.277895 z"
       id="path3368-4-4"
       inkscape:connector-curvature="0"
       sodipodi:nodetypes="cssssc" />
    <path
       style="fill:#ffcc00;fill-rule:evenodd;stroke:#ffcc00;stroke-width:0.12035146px;stroke-linecap:butt;stroke-linejoin:miter;stroke-opacity:1"
       d="M 31.937762,16.379497 C 34.606437,15.020474 31.399826,10.026468 30.67876,9.6120298 30.000979,9.2224647 29.730199,9.4247158 28.399841,6.5457602 27.019794,3.5593232 26.928444,3.5957433 27.991419,6.8357929 c 0.987661,3.0104645 0.676787,3.0428107 0.478024,4.0444721 -0.193184,0.973558 0.829287,6.858416 3.468318,5.499236 z"
       id="path3368-4-5"
       inkscape:connector-curvature="0"
       sodipodi:nodetypes="cssssc" />
    <path
       style="fill:#ffcc00;fill-rule:evenodd;stroke:#ffcc00;stroke-width:0.12035146px;stroke-linecap:butt;stroke-linejoin:miter;stroke-opacity:1"
       d="m 29.664889,22.291215 c 2.667364,-1.361595 -0.544058,-6.352507 -1.265523,-6.76625 -0.678156,-0.388912 -0.948742,-0.1864 -2.281874,-3.064072 -1.382925,-2.9851047 -1.47424,-2.9485966 -0.408142,0.290426 0.990562,3.009511 0.679719,3.042157 0.481922,4.044009 -0.192246,0.973745 0.835897,6.857614 3.473617,5.495891 z"
       id="path3368-4-5-2"
       inkscape:connector-curvature="0"
       sodipodi:nodetypes="cssssc"
       inkscape:transform-center-x="-0.98522253"
       inkscape:transform-center-y="-0.82043017" />
    <path
       style="fill:#ffcc00;fill-rule:evenodd;stroke:#ffcc00;stroke-width:0.12035146px;stroke-linecap:butt;stroke-linejoin:miter;stroke-opacity:1"
       d="m 27.352465,28.283628 c 2.667364,-1.361595 -0.544058,-6.352507 -1.265523,-6.76625 -0.678156,-0.388912 -0.948742,-0.1864 -2.281874,-3.064072 -1.382925,-2.985104 -1.47424,-2.948596 -0.408142,0.290426 0.990562,3.009511 0.679719,3.042157 0.481922,4.044009 -0.192246,0.973745 0.835897,6.857614 3.473617,5.495891 z"
       id="path3368-4-5-2-0"
       inkscape:connector-curvature="0"
       sodipodi:nodetypes="cssssc"
       inkscape:transform-center-x="-0.98522253"
       inkscape:transform-center-y="-0.82043017" />
    <path
       style="fill:#ffcc00;fill-rule:evenodd;stroke:#ffcc00;stroke-width:0.12035146px;stroke-linecap:butt;stroke-linejoin:miter;stroke-opacity:1"
       d="m 26.189388,34.006841 c 2.495004,-1.65642 -1.263751,-6.249262 -2.02763,-6.578176 -0.718024,-0.309176 -0.963795,-0.07717 -2.61588,-2.784359 -1.713787,-2.808251 -1.800352,-2.761584 -0.372424,0.335004 1.326753,2.877168 1.021648,2.944991 0.939198,3.962848 -0.08014,0.989301 1.611198,6.71786 4.076736,5.064687 z"
       id="path3368-4-5-2-1"
       inkscape:connector-curvature="0"
       sodipodi:nodetypes="cssssc"
       inkscape:transform-center-x="-0.77987263"
       inkscape:transform-center-y="-0.82112524" />
    <path
       style="fill:#ffcc00;fill-rule:evenodd;stroke:#ffcc00;stroke-width:0.12035146px;stroke-linecap:butt;stroke-linejoin:miter;stroke-opacity:1"
       d="m 25.581555,40.055123 c 2.249247,-1.977288 -2.093702,-6.022189 -2.894913,-6.245252 -0.753116,-0.209678 -0.965409,0.05331 -2.966971,-2.406775 -2.076309,-2.551917 -2.155802,-2.494019 -0.323923,0.3821 1.702079,2.67232 1.408885,2.780607 1.46424,3.800297 0.0538,0.991082 2.501083,6.439735 4.721568,4.469634 z"
       id="path3368-4-5-2-1-1"
       inkscape:connector-curvature="0"
       sodipodi:nodetypes="cssssc"
       inkscape:transform-center-x="-0.54527058"
       inkscape:transform-center-y="-0.79730543" />
    <path
       style="fill:#ffcc00;fill-rule:evenodd;stroke:#ffcc00;stroke-width:0.12035146px;stroke-linecap:butt;stroke-linejoin:miter;stroke-opacity:1"
       d="m 26.763754,45.992946 c 1.477984,-2.604677 -3.949848,-5.004901 -4.779933,-4.953375 -0.780258,0.04843 -0.894756,0.366425 -3.591394,-1.302831 -2.797329,-1.731557 -2.853488,-1.650826 -0.180982,0.467088 2.483138,1.967839 2.241552,2.166143 2.627678,3.111521 0.375292,0.918855 4.471475,5.266072 5.924634,2.677601 z"
       id="path3368-4-5-2-1-1-0"
       inkscape:connector-curvature="0"
       sodipodi:nodetypes="cssssc"
       inkscape:transform-center-x="-0.99626645"
       inkscape:transform-center-y="-1.8566712" />
    <path
       style="fill:#ffcc00;fill-rule:evenodd;stroke:#ffcc00;stroke-width:0.12035146px;stroke-linecap:butt;stroke-linejoin:miter;stroke-opacity:1"
       d="m 29.035661,51.280493 c 0.825696,-2.878717 -5.013742,-3.938622 -5.808574,-3.6938 -0.747123,0.230121 -0.783826,0.566103 -3.796807,-0.423954 -3.125479,-1.026999 -3.16113,-0.935346 -0.06636,0.496511 2.875486,1.330394 2.687162,1.579839 3.284294,2.408251 0.580376,0.805171 5.58208,4.070132 6.387446,1.212994 z"
       id="path3368-4-5-2-1-1-9"
       inkscape:connector-curvature="0"
       sodipodi:nodetypes="cssssc"
       inkscape:transform-center-x="7.3996594"
       inkscape:transform-center-y="-2.7830078" />
  </g>
</svg>
